<svg xmlns="http://www.w3.org/2000/svg" width="800" height="800" viewBox="0 0 512 512">
<defs>
    <linearGradient id="x" x1="0" y1="0" x2="100%" y2="100%">
      <stop offset="0" stop-color="#0cf"></stop>
      <stop offset="1" stop-color="#07f"></stop>
    </linearGradient>
  </defs>
  <rect fill="url(#x)" x="0" y="0" width="100%" height="100%" rx="10%"></rect>

  <g fill="#fff" transform="scale(0.66) rotate(-30) translate(-150, 240)">
    <path d="M495 345V38c0-3-2-6-5-7-4-2-7-1-10 1l-51 41a99 99 0 0 0-36 77v161H273l44-68c17-26 20-57 11-86l-22-62c-1-3-3-6-6-6-4 0-7 2-9 4L151 311h-32V210l17-41v-6l-17-51c-1-3-5-6-8-6H77c-4 0-7 3-8 6l-17 51v6l16 41v103c-39 8-68 42-68 83 0 47 38 86 85 86h342a86 86 0 0 0 68-137zm-85-195c0-25 11-49 30-64l38-30v272a83 83 0 0 0-46-17h-22V150zm-114-32 15 45c9 23 6 49-8 70l-50 78h-81l124-193zM85 399v3h1v5a84 84 0 0 0 32 57 68 68 0 0 1 0-135 85 85 0 0 0-32 57v5h-1v8zm-1-194-16-40 15-43h22l14 43-16 40-1 4v102H85V209l-1-4zM17 396c0-34 26-63 59-67a85 85 0 0 0 0 135c-33-4-59-33-59-68zm410 69H171a69 69 0 0 1-15-135l13-2h262l3 1h4a68 68 0 0 1 43 27c9 11 14 25 14 40 0 38-31 69-68 69z"/>
    <path d="M333 388h-26v-26c0-5-3-8-8-8s-9 3-9 8v26h-25c-6 0-9 3-9 8s3 9 9 9h25v26c0 5 4 8 9 8s8-3 8-8v-26h26c5 0 8-3 8-9s-3-8-8-8zM171 362c-19 0-34 16-34 34 0 19 15 35 34 35 18 0 34-16 34-35 0-18-16-34-34-34zm0 51c-10 0-17-7-17-17s7-17 17-17 17 8 17 17-8 17-17 17zM427 362c-19 0-34 16-34 34 0 19 15 35 34 35a34 34 0 1 0 0-69zm0 51c-10 0-17-7-17-17s7-17 17-17 17 8 17 17-8 17-17 17zM444 192c5 0 8-4 8-9v-34c0-5-3-9-8-9s-9 4-9 9v34c0 5 4 9 9 9zM259 233l6 1c2 0 5-1 6-4l17-26c3-4 2-9-2-12s-10-1-12 3l-17 26c-3 4-2 9 2 12z"/>
  </g>
</svg>